<svg width="20" height="19" viewBox="0 0 20 19" fill="none" xmlns="http://www.w3.org/2000/svg">
<path fill-rule="evenodd" clip-rule="evenodd" d="M6.79542 0C6.16463 0 5.55968 0.250581 5.11364 0.696617C4.6676 1.14265 4.41702 1.74761 4.41702 2.3784V4.05007H2.03863C1.49795 4.05007 0.979417 4.26486 0.5971 4.64717C0.214783 5.02949 0 5.54802 0 6.0887L0 16.9614C0 17.5021 0.214783 18.0206 0.5971 18.4029C0.979417 18.7852 1.49795 19 2.03863 19H16.9886C17.5292 19 18.0478 18.7852 18.4301 18.4029C18.8124 18.0206 19.0272 17.5021 19.0272 16.9614V6.0887C19.0272 5.54802 18.8124 5.02949 18.4301 4.64717C18.0478 4.26486 17.5292 4.05007 16.9886 4.05007H14.6102V2.3784C14.6102 1.74761 14.3596 1.14265 13.9135 0.696617C13.4675 0.250581 12.8625 0 12.2318 0H6.79542ZM12.5715 4.05007V2.3784C12.5715 2.28828 12.5357 2.20186 12.472 2.13814C12.4083 2.07442 12.3219 2.03863 12.2318 2.03863H6.79542C6.70531 2.03863 6.61889 2.07442 6.55517 2.13814C6.49145 2.20186 6.45565 2.28828 6.45565 2.3784V4.05007H12.5715Z" fill="white"/>
</svg>
