<svg width="21" height="20" viewBox="0 0 21 20" fill="none" xmlns="http://www.w3.org/2000/svg">
<path d="M14.6341 0C11.9415 0 9.7561 2.18537 9.7561 4.87805C9.7561 7.57073 11.9415 9.7561 14.6341 9.7561C17.3268 9.7561 19.5122 7.57073 19.5122 4.87805C19.5122 2.18537 17.3268 0 14.6341 0ZM14.6341 7.80488C13.0146 7.80488 11.7073 6.49756 11.7073 4.87805C11.7073 3.25854 13.0146 1.95122 14.6341 1.95122C16.2537 1.95122 17.561 3.25854 17.561 4.87805C17.561 6.49756 16.2537 7.80488 14.6341 7.80488ZM17.561 13.6585H15.6098C15.6098 12.4878 14.878 11.4341 13.7854 11.0244L7.77561 8.78049H0V19.5122H5.85366V18.1073L12.6829 20L20.4878 17.561V16.5854C20.4878 14.9659 19.1805 13.6585 17.561 13.6585ZM3.90244 17.561H1.95122V10.7317H3.90244V17.561ZM12.6537 17.961L5.85366 16.0976V10.7317H7.42439L13.1024 12.8488C13.4341 12.9756 13.6585 13.2976 13.6585 13.6585C13.6585 13.6585 11.7073 13.6098 11.4146 13.5122L9.09268 12.7415L8.47805 14.5951L10.8 15.3659C11.2976 15.5317 11.8146 15.6098 12.3415 15.6098H17.561C17.9415 15.6098 18.2829 15.8439 18.439 16.1659L12.6537 17.961Z" fill="white"/>
</svg>
