<svg width="698" height="336" viewBox="0 0 698 336" fill="none" xmlns="http://www.w3.org/2000/svg">
<path fill-rule="evenodd" clip-rule="evenodd" d="M380.711 -416.023C410.9 -419.586 441.475 -418.862 471.904 -413.7C490.605 -410.527 509.026 -405.716 527.051 -399.342C461.902 -331.341 429.182 -185.163 438.332 7.58346C443.447 117.083 404.587 132.072 315.101 156.671C275.839 165.543 237.474 180.261 200.756 200.534C161.678 225.718 129.764 266.549 109.689 317.053C93.0908 359.251 84.0173 405.37 82.7757 452.018C62.2922 416.157 45.2707 377.07 32.1265 335.627C125.871 203.452 132.167 138.011 136.719 90.692L136.736 90.5091L136.741 90.472C140.772 49.7405 143.451 22.6835 245.329 -65.8688C339.541 -147.754 390.185 -278.206 380.711 -416.023ZM12.2391 256.294C-6.51572 156.034 -3.08472 50.3094 22.6738 -48.3715C53.7899 -167.579 115.563 -269.137 197.473 -335.749C237.343 -368.172 280.783 -391.34 325.89 -404.712C332.292 -294.856 292.57 -194.989 214.694 -127.01C97.7778 -25.2538 87.9784 18.0481 82.0302 80.3388C78.6051 117.739 74.2587 161.73 12.2391 256.294ZM133.062 525.115C124.026 442.88 145.603 314.328 224.053 266.822C256.901 248.386 291.202 234.764 326.331 226.204C408.401 204.063 501.774 178.45 493.815 1.92851C486.484 -142.561 506.204 -320.769 586.79 -371.678C612.736 -356.665 637.463 -338.204 660.568 -316.564C624.462 -271.241 560.401 -177.239 555.762 -76.2549C554.557 -49.2355 557.859 -22.2143 565.435 2.94453C573.012 28.1034 584.685 50.8024 599.646 69.4709C609.113 84.4871 621.599 95.7634 635.707 102.041C649.816 108.317 664.993 109.351 679.549 105.023C736.205 85.6254 776.27 -22.411 797.558 -97.3373C804.814 -76.1408 811.026 -54.3378 816.151 -32.0576C805.032 45.1631 776.296 113.665 742.397 162.648C651.006 301.612 564.127 306.066 480.263 310.364L479.94 310.382C442.583 309.52 405.321 316.014 369.414 329.646C236.862 390.118 196.78 513.769 184.807 578.445C166.516 562.506 149.212 544.677 133.062 525.115ZM235.277 616.027C238.291 584.794 258.567 456.069 387.146 395.962C418.057 384.514 450.048 378.879 482.151 379.231L483.145 379.178C569.886 374.639 677.595 369.001 784.478 206.319C804.003 177.774 820.5 146.146 833.631 112.307C835.575 227.791 809.298 341.365 758.442 436.438L758.394 436.328C703.092 476.41 648.946 471.409 591.347 465.696C544.128 456.366 495.879 460.996 450.151 479.243C377.831 515.029 355.239 601.92 352.052 663.408C315.339 655.977 279.314 642.114 244.983 621.92C241.726 620.009 238.492 618.046 235.277 616.027ZM396.662 669.248C398.258 632.419 409.679 563.462 465.54 535.821C505.02 520.932 546.487 517.464 587.048 525.656C622.226 529.485 659.882 533.244 698.677 525.695C649.53 584.726 589.951 627.918 524.721 650.942C482.692 665.779 439.488 671.827 396.662 669.248ZM760.974 -182.631L760.959 -182.636C743.949 -101.549 701.769 23.4805 666.057 35.7025C662.807 37.3106 654.017 39.8405 638.099 19.257C628.849 7.47777 621.697 -6.80965 617.142 -22.6032C612.587 -38.3968 610.74 -55.3125 611.734 -72.1576C614.723 -145.966 669.759 -227.806 703.689 -270.129C709.772 -262.625 715.693 -254.862 721.444 -246.854C735.923 -226.683 749.124 -205.202 760.974 -182.631Z" fill="url(#paint0_linear_1_1935)" fill-opacity="0.19"/>
<defs>
<linearGradient id="paint0_linear_1_1935" x1="555.616" y1="257.391" x2="-53.5933" y2="253.158" gradientUnits="userSpaceOnUse">
<stop offset="0.267394" stop-color="white"/>
<stop offset="0.901692" stop-color="white" stop-opacity="0"/>
</linearGradient>
</defs>
</svg>
