<svg width="150" height="50" viewBox="0 0 150 50" fill="none" xmlns="http://www.w3.org/2000/svg">
<path d="M40.2925 21.9707C40.6068 33.4789 27.83 39.9879 19.2491 37.7096C11.7851 35.7278 6.47949 22.074 7.38498 6.88642C7.52047 4.61396 7.795 2.30717 8.22217 0C28.4439 6.34182 39.9783 10.4626 40.2925 21.9707Z" fill="#4AB75F"/>
<g style="mix-blend-mode:multiply">
<path d="M38.4837 35.6254C34.2148 36.6235 30.8157 32.1011 31.0133 28.5584C31.1853 25.4768 35.8752 22.3557 41.6093 21.5569C42.4673 21.4373 43.3486 21.3698 44.2417 21.3622C43.4131 29.7848 42.7526 34.6273 38.4837 35.6254Z" fill="#4F4F4F"/>
</g>
<g style="mix-blend-mode:multiply">
<path fill-rule="evenodd" clip-rule="evenodd" d="M28.2345 49.9369L30.6257 49.9998C30.6555 49.1952 30.6665 48.3834 30.6578 47.5654C30.4931 31.9298 23.2364 18.8348 13.3984 14.6437C22.0391 20.4036 28.1029 32.9807 28.2578 47.6747C28.2658 48.4341 28.2579 49.1884 28.2345 49.9369Z" fill="#4F4F4F"/>
</g>
<path d="M56.0085 26.9999V6.63624H69.054V9.72857H59.6974V15.257H68.1591V18.3493H59.6974V26.9999H56.0085ZM77.896 27.2982C76.3647 27.2982 75.0423 26.98 73.9286 26.3436C72.8216 25.7006 71.9698 24.7925 71.3732 23.6192C70.7766 22.4393 70.4783 21.0505 70.4783 19.453C70.4783 17.882 70.7766 16.5032 71.3732 15.3166C71.9764 14.1235 72.8183 13.1954 73.8988 12.5325C74.9793 11.863 76.2487 11.5283 77.707 11.5283C78.6483 11.5283 79.5366 11.6807 80.3718 11.9857C81.2137 12.284 81.9561 12.748 82.5991 13.3777C83.2487 14.0075 83.7591 14.8095 84.1303 15.784C84.5015 16.7518 84.6871 17.9052 84.6871 19.2442V20.3479H72.1687V17.9218H81.2369C81.2302 17.2324 81.0811 16.6192 80.7894 16.0823C80.4978 15.5387 80.0901 15.1111 79.5664 14.7996C79.0494 14.488 78.4461 14.3323 77.7567 14.3323C77.021 14.3323 76.3746 14.5112 75.8178 14.8692C75.261 15.2205 74.8268 15.6845 74.5153 16.2612C74.2103 16.8313 74.0546 17.4577 74.0479 18.1405V20.2584C74.0479 21.1467 74.2103 21.909 74.5352 22.5453C74.86 23.1751 75.314 23.659 75.8974 23.997C76.4807 24.3285 77.1635 24.4942 77.9457 24.4942C78.4693 24.4942 78.9433 24.4213 79.3675 24.2754C79.7918 24.123 80.1597 23.9009 80.4712 23.6093C80.7828 23.3176 81.0181 22.9563 81.1772 22.5254L84.538 22.9033C84.3259 23.7915 83.9215 24.5671 83.3249 25.23C82.735 25.8862 81.9793 26.3967 81.0579 26.7612C80.1365 27.1192 79.0825 27.2982 77.896 27.2982ZM87.7322 26.9999V11.7272H91.2223V14.2726H91.3814C91.6598 13.391 92.1371 12.7115 92.8132 12.2343C93.496 11.7504 94.2749 11.5084 95.1499 11.5084C95.3487 11.5084 95.5708 11.5183 95.8161 11.5382C96.0679 11.5515 96.2768 11.5747 96.4425 11.6078V14.9189C96.29 14.8659 96.0481 14.8195 95.7166 14.7797C95.3918 14.7333 95.0769 14.7101 94.772 14.7101C94.1158 14.7101 93.5258 14.8526 93.0021 15.1377C92.4851 15.4161 92.0774 15.8039 91.7791 16.301C91.4808 16.7982 91.3317 17.3716 91.3317 18.0212V26.9999H87.7322ZM98.8338 26.9999V11.7272H102.274V14.3223H102.453C102.771 13.4473 103.298 12.7646 104.034 12.274C104.77 11.7769 105.648 11.5283 106.669 11.5283C107.703 11.5283 108.575 11.7802 109.284 12.284C110 12.7811 110.504 13.4606 110.795 14.3223H110.955C111.293 13.4738 111.863 12.7977 112.665 12.2939C113.473 11.7835 114.431 11.5283 115.538 11.5283C116.944 11.5283 118.09 11.9724 118.979 12.8607C119.867 13.7489 120.311 15.0449 120.311 16.7485V26.9999H116.702V17.3053C116.702 16.3574 116.45 15.6647 115.946 15.2272C115.442 14.783 114.826 14.561 114.097 14.561C113.228 14.561 112.549 14.8327 112.058 15.3763C111.574 15.9132 111.332 16.6126 111.332 17.4743V26.9999H107.803V17.1561C107.803 16.3673 107.564 15.7376 107.087 15.2669C106.616 14.7963 106 14.561 105.237 14.561C104.72 14.561 104.25 14.6935 103.825 14.9587C103.401 15.2172 103.063 15.5851 102.811 16.0624C102.559 16.533 102.433 17.0832 102.433 17.7129V26.9999H98.8338ZM130.724 27.2982C129.193 27.2982 127.87 26.98 126.757 26.3436C125.65 25.7006 124.798 24.7925 124.201 23.6192C123.605 22.4393 123.306 21.0505 123.306 19.453C123.306 17.882 123.605 16.5032 124.201 15.3166C124.805 14.1235 125.646 13.1954 126.727 12.5325C127.807 11.863 129.077 11.5283 130.535 11.5283C131.476 11.5283 132.365 11.6807 133.2 11.9857C134.042 12.284 134.784 12.748 135.427 13.3777C136.077 14.0075 136.587 14.8095 136.958 15.784C137.33 16.7518 137.515 17.9052 137.515 19.2442V20.3479H124.997V17.9218H134.065C134.058 17.2324 133.909 16.6192 133.618 16.0823C133.326 15.5387 132.918 15.1111 132.395 14.7996C131.877 14.488 131.274 14.3323 130.585 14.3323C129.849 14.3323 129.203 14.5112 128.646 14.8692C128.089 15.2205 127.655 15.6845 127.343 16.2612C127.038 16.8313 126.883 17.4577 126.876 18.1405V20.2584C126.876 21.1467 127.038 21.909 127.363 22.5453C127.688 23.1751 128.142 23.659 128.725 23.997C129.309 24.3285 129.992 24.4942 130.774 24.4942C131.297 24.4942 131.771 24.4213 132.196 24.2754C132.62 24.123 132.988 23.9009 133.299 23.6093C133.611 23.3176 133.846 22.9563 134.005 22.5254L137.366 22.9033C137.154 23.7915 136.75 24.5671 136.153 25.23C135.563 25.8862 134.807 26.3967 133.886 26.7612C132.965 27.1192 131.911 27.2982 130.724 27.2982ZM140.56 26.9999V11.7272H144.05V14.2726H144.21C144.488 13.391 144.965 12.7115 145.641 12.2343C146.324 11.7504 147.103 11.5084 147.978 11.5084C148.177 11.5084 148.399 11.5183 148.644 11.5382C148.896 11.5515 149.105 11.5747 149.271 11.6078V14.9189C149.118 14.8659 148.876 14.8195 148.545 14.7797C148.22 14.7333 147.905 14.7101 147.6 14.7101C146.944 14.7101 146.354 14.8526 145.83 15.1377C145.313 15.4161 144.906 15.8039 144.607 16.301C144.309 16.7982 144.16 17.3716 144.16 18.0212V26.9999H140.56Z" fill="black"/>
<path d="M57.1136 39.8862V44.9999H55.0568V33.3635H57.0682V37.7556H57.1705C57.375 37.2631 57.6913 36.8749 58.1193 36.5908C58.5511 36.3029 59.1004 36.159 59.767 36.159C60.3731 36.159 60.9015 36.2859 61.3523 36.5396C61.803 36.7934 62.1515 37.1647 62.3977 37.6533C62.6477 38.1419 62.7727 38.7385 62.7727 39.4431V44.9999H60.7159V39.7612C60.7159 39.1741 60.5644 38.7177 60.2614 38.3919C59.9621 38.0624 59.5417 37.8976 59 37.8976C58.6364 37.8976 58.3106 37.9772 58.0227 38.1362C57.7386 38.2915 57.5152 38.5169 57.3523 38.8124C57.1932 39.1078 57.1136 39.4658 57.1136 39.8862ZM70.4318 41.3294V36.2726H72.4886V44.9999H70.4943V43.4487H70.4034C70.2064 43.9374 69.8826 44.337 69.4318 44.6476C68.9848 44.9582 68.4337 45.1135 67.7784 45.1135C67.2064 45.1135 66.7008 44.9866 66.2614 44.7328C65.8258 44.4753 65.4848 44.1022 65.2386 43.6135C64.9924 43.1211 64.8693 42.5264 64.8693 41.8294V36.2726H66.9261V41.5112C66.9261 42.0643 67.0777 42.5037 67.3807 42.8294C67.6837 43.1552 68.0814 43.3181 68.5739 43.3181C68.8769 43.3181 69.1705 43.2442 69.4545 43.0965C69.7386 42.9487 69.9716 42.729 70.1534 42.4374C70.339 42.1419 70.4318 41.7726 70.4318 41.3294ZM74.6946 44.9999V33.3635H76.7514V37.7158H76.8366C76.9427 37.5037 77.0923 37.2783 77.2855 37.0397C77.4787 36.7972 77.7401 36.5908 78.0696 36.4203C78.3991 36.2461 78.8196 36.159 79.331 36.159C80.0052 36.159 80.6132 36.3313 81.1548 36.676C81.7003 37.0169 82.1321 37.5226 82.4503 38.1931C82.7723 38.8597 82.9332 39.6779 82.9332 40.6476C82.9332 41.6059 82.776 42.4203 82.4616 43.0908C82.1473 43.7612 81.7192 44.2726 81.1776 44.6249C80.6359 44.9772 80.0223 45.1533 79.3366 45.1533C78.8366 45.1533 78.4219 45.07 78.0923 44.9033C77.7628 44.7366 77.4976 44.5359 77.2969 44.301C77.0999 44.0624 76.9465 43.837 76.8366 43.6249H76.7173V44.9999H74.6946ZM76.7116 40.6362C76.7116 41.2006 76.7912 41.695 76.9503 42.1192C77.1132 42.5434 77.3461 42.8749 77.6491 43.1135C77.956 43.3484 78.3272 43.4658 78.7628 43.4658C79.2173 43.4658 79.598 43.3446 79.9048 43.1022C80.2116 42.8559 80.4427 42.5207 80.598 42.0965C80.7571 41.6684 80.8366 41.1817 80.8366 40.6362C80.8366 40.0946 80.759 39.6135 80.6037 39.1931C80.4484 38.7726 80.2173 38.4431 79.9105 38.2044C79.6037 37.9658 79.2211 37.8465 78.7628 37.8465C78.3234 37.8465 77.9503 37.962 77.6435 38.1931C77.3366 38.4241 77.1037 38.748 76.9446 39.1647C76.7893 39.5813 76.7116 40.0718 76.7116 40.6362Z" fill="#49B75F"/>
</svg>
