<svg width="23" height="20" viewBox="0 0 23 20" fill="none" xmlns="http://www.w3.org/2000/svg">
<path d="M10.9778 0C8.60132 0 6.75408 9.17026e-08 5.31608 0.153852C3.86167 0.31078 2.70984 0.635919 1.79083 1.3703C0.847209 2.1252 0.406168 3.10677 0.197955 4.34476C-4.58513e-08 5.52634 0 7.02999 0 8.90492V9.09262C0 10.9204 4.58513e-08 12.185 0.205135 13.1276C0.315908 13.6353 0.490273 14.0764 0.764129 14.4846C1.03491 14.8867 1.37953 15.2251 1.79083 15.5534C2.43803 16.0713 3.20114 16.3842 4.10271 16.579V19.2314C4.10283 19.3662 4.13835 19.4986 4.20573 19.6153C4.2731 19.732 4.36996 19.829 4.48661 19.8965C4.60325 19.964 4.73559 19.9997 4.87036 20C5.00513 20.0003 5.13762 19.9651 5.25454 19.8981C5.85559 19.5545 6.38791 19.1801 6.87511 18.8273L7.18691 18.6006C7.53385 18.3409 7.8882 18.0912 8.24951 17.8519C9.11519 17.2898 9.94188 16.9237 11.026 16.9237H11.0742C13.4507 16.9237 15.298 16.9237 16.736 16.7698C18.1904 16.6129 19.3422 16.2877 20.2612 15.5534C20.6715 15.2251 21.0171 14.8867 21.2869 14.4846C21.5618 14.0764 21.7361 13.6353 21.8469 13.1276C22.052 12.185 22.052 10.9204 22.052 9.09262V8.90492C22.052 7.02999 22.052 5.52634 21.8541 4.34579C21.6459 3.10677 21.2048 2.1252 20.2612 1.3703C19.3422 0.634894 18.1904 0.31078 16.736 0.154877C15.298 3.05675e-08 13.4507 0 11.0742 0H10.9778ZM11.026 5.12838C11.23 5.12838 11.4257 5.20943 11.57 5.35369C11.7142 5.49796 11.7953 5.69362 11.7953 5.89764V7.69257H13.5902C13.7942 7.69257 13.9899 7.77362 14.1342 7.91788C14.2784 8.06215 14.3595 8.25781 14.3595 8.46183C14.3595 8.66585 14.2784 8.86151 14.1342 9.00578C13.9899 9.15004 13.7942 9.23109 13.5902 9.23109H11.7953V11.026C11.7953 11.23 11.7142 11.4257 11.57 11.57C11.4257 11.7142 11.23 11.7953 11.026 11.7953C10.822 11.7953 10.6263 11.7142 10.4821 11.57C10.3378 11.4257 10.2568 11.23 10.2568 11.026V9.23109H8.46183C8.25781 9.23109 8.06215 9.15004 7.91788 9.00578C7.77362 8.86151 7.69257 8.66585 7.69257 8.46183C7.69257 8.25781 7.77362 8.06215 7.91788 7.91788C8.06215 7.77362 8.25781 7.69257 8.46183 7.69257H10.2568V5.89764C10.2568 5.69362 10.3378 5.49796 10.4821 5.35369C10.6263 5.20943 10.822 5.12838 11.026 5.12838Z" fill="white"/>
</svg>
