<svg width="19" height="20" viewBox="0 0 19 20" fill="none" xmlns="http://www.w3.org/2000/svg">
<path fill-rule="evenodd" clip-rule="evenodd" d="M6.51783 2.76886C5.88213 2.37458 5.14389 2.17742 4.39626 2.20226C3.85899 2.21509 3.09801 2.29486 2.68543 2.68543C2.29486 3.09801 2.21509 3.85899 2.20134 4.39626C2.17705 5.14408 2.37485 5.88233 2.76978 6.51783C1.91895 6.71404 1.29366 7.16879 0.86825 7.61621C0.497845 8.00587 0.0155863 8.59998 0 9.16842C0.0155863 9.73687 0.497845 10.331 0.86825 10.7206C1.37956 11.2661 2.04088 11.6479 2.76886 11.8181C2.37458 12.4538 2.17742 13.192 2.20226 13.9397C2.21601 14.4779 2.29394 15.2379 2.68543 15.6505C3.09801 16.0411 3.85899 16.1199 4.39626 16.1337C5.14389 16.1585 5.88213 15.9614 6.51783 15.5671C6.71404 16.417 7.16879 17.0432 7.61621 17.4677C8.00587 17.8381 8.6009 18.3203 9.16842 18.3359C9.73687 18.3203 10.331 17.8381 10.7206 17.4677C11.2664 16.9565 11.6486 16.2952 11.819 15.5671C12.4548 15.9612 13.1929 16.1586 13.9406 16.1346C14.4779 16.1208 15.2388 16.0411 15.6514 15.6505C16.042 15.2379 16.1208 14.4769 16.1346 13.9397C16.1594 13.192 15.9623 12.4538 15.568 11.8181C16.2961 11.6477 16.9574 11.2655 17.4686 10.7197C17.839 10.3301 18.3213 9.73595 18.3368 9.16751C18.3213 8.59906 17.839 8.00495 17.4686 7.61529C16.9572 7.0702 16.2959 6.68867 15.568 6.51875C15.9621 5.88293 16.1595 5.14484 16.1355 4.39718C16.1218 3.85991 16.042 3.09893 15.6514 2.68635C15.2388 2.29577 14.4779 2.21601 13.9406 2.20226C13.1928 2.17797 12.4545 2.37577 11.819 2.7707C11.6488 2.04227 11.2666 1.3806 10.7206 0.869167C10.331 0.497845 9.73687 0.0155863 9.16842 0C8.59998 0.0155863 8.00679 0.497845 7.61621 0.86825C7.07078 1.37956 6.688 2.04088 6.51783 2.76886ZM9.16842 11.0021C9.65475 11.0021 10.1212 10.8089 10.465 10.465C10.8089 10.1212 11.0021 9.65475 11.0021 9.16842C11.0021 8.6821 10.8089 8.2157 10.465 7.87181C10.1212 7.52793 9.65475 7.33474 9.16842 7.33474C8.6821 7.33474 8.2157 7.52793 7.87181 7.87181C7.52793 8.2157 7.33474 8.6821 7.33474 9.16842C7.33474 9.65475 7.52793 10.1212 7.87181 10.465C8.2157 10.8089 8.6821 11.0021 9.16842 11.0021Z" fill="white"/>
</svg>
